<svg xmlns:rdf="http://www.w3.org/1999/02/22-rdf-syntax-ns#" xmlns:dc="http://purl.org/dc/elements/1.1/" xmlns="http://www.w3.org/2000/svg" width="1200" height="1200" viewBox="0 0 24 24" fill="none"><metadata><rdf:RDF><rdf:Description rdf:about="https://product.design.dev.aws.mskcc.org/"><dc:creator>MSK</dc:creator><dc:description>v2.6.0</dc:description><dc:date>April 29, 2024</dc:date></rdf:Description></rdf:RDF></metadata><path d="M20.0275 3.10674C18.2145 1.04528 15.5135 0 12.0001 0C8.48645 0 5.78564 1.04528 3.97249 3.10674C2.19922 5.12301 1.30005 8.11512 1.30005 12C1.30005 15.8849 2.19922 18.877 3.97249 20.8933C5.78564 22.9548 8.48645 24 12.0001 24C15.5135 24 18.2145 22.9548 20.0275 20.8933C21.8009 18.877 22.7 15.8849 22.7 12C22.7 8.11512 21.8009 5.12301 20.0275 3.10674V3.10674ZM12.0001 22.6168C5.79501 22.6168 2.69254 19.0779 2.69254 12C2.69254 4.92214 5.79501 1.38318 12.0001 1.38318C18.205 1.38318 21.3076 4.92214 21.3076 12C21.3076 19.0779 18.205 22.6168 12.0001 22.6168V22.6168ZM12.0001 3.83722L16.2466 8.06781L15.2646 9.04609L12.6944 6.48546V10.848H15.7423V12.2315H12.6944V13.3021H15.7423V14.6855H12.6944V15.7561H15.7423V17.1395H12.6944V20.1628H11.3057V17.1395H8.2578V15.7561H11.3057V14.6855H8.2578V13.3021H11.3057V12.2315H8.2578V10.848H11.3057V6.48557L8.7355 9.04609L7.75352 8.06781L12.0001 3.83722Z" fill="black"/></svg>